<?xml version="1.0" encoding="UTF-8"?>
<svg id="Layer_1" xmlns="http://www.w3.org/2000/svg" version="1.1" viewBox="0 0 1282.56 238.72">
  <!-- Generator: Adobe Illustrator 30.1.0, SVG Export Plug-In . SVG Version: 2.1.1 Build 136)  -->
  <defs>
    <style>
      .st0 {
        fill: #b81319;
      }

      .st1 {
        fill: #fff;
      }
    </style>
  </defs>
  <rect class="st1" x="592.56" y="76.89" width="89.85" height="99.42"/>
  <g>
    <polygon class="st1" points="39.5 87.82 166.86 87.82 166.86 59.29 66.78 59.29 39.5 87.82"/>
    <polygon class="st1" points="87.3 190.29 132.71 190.29 133.18 94.15 87.77 94.15 87.3 190.29"/>
    <polygon class="st1" points="171.67 87.12 184.8 87.12 184.8 162.35 171.67 162.35 171.67 190.29 241.56 190.29 241.56 162.35 228.43 162.35 228.43 87.12 241.56 87.12 241.56 59.29 171.67 59.29 171.67 87.12"/>
    <rect class="st1" x="368.48" y="59.29" width="43.63" height="131"/>
    <polygon class="st1" points="299.28 59.29 252.88 59.29 330.57 190.29 362.06 136.09 362.06 70.15 334.42 117.53 299.28 59.29"/>
    <polygon class="st1" points="252.78 190.29 293.55 190.29 293.55 139.84 252.78 71.43 252.78 190.29"/>
    <polygon class="st1" points="510.7 111.22 468.94 111.22 468.94 59.29 425.31 59.29 425.31 190.29 468.94 190.29 468.94 136.49 510.7 136.49 510.7 111.22"/>
    <polygon class="st1" points="500.43 164.13 475.85 164.13 475.85 190.29 544.07 190.29 544.07 151 500.43 151 500.43 164.13"/>
    <polygon class="st1" points="475.85 84.66 503 84.66 503 97.2 544.07 97.2 544.07 59.29 475.85 59.29 475.85 84.66"/>
    <rect class="st1" x="846.98" y="59.22" width="43.63" height="131"/>
    <polygon class="st1" points="731.28 190.22 772.05 190.22 772.05 139.78 731.28 71.36 731.28 190.22"/>
    <polygon class="st1" points="777.78 59.22 731.38 59.22 809.07 190.22 840.57 136.02 840.57 70.08 812.92 117.46 777.78 59.22"/>
    <polygon class="st1" points="967.78 59.36 967.78 85.91 984.46 85.91 984.46 163.7 967.78 163.7 967.78 190.36 1001.64 190.36 1028.1 164.2 1028.1 85.52 1001.64 59.36 967.78 59.36"/>
    <polygon class="st1" points="900.75 85.52 900.75 164.2 927.3 190.36 960.87 190.36 960.87 163.7 944.48 163.7 944.48 85.91 960.87 85.91 960.87 59.36 927.3 59.36 900.75 85.52"/>
    <polygon class="st1" points="1060.83 190.36 1106.24 190.36 1106.72 94.22 1061.31 94.22 1060.83 190.36"/>
    <polygon class="st1" points="1013.03 59.36 1040.31 87.88 1126.76 87.88 1154.04 59.36 1013.03 59.36"/>
    <polygon class="st1" points="1239.78 59.36 1205.91 59.36 1205.91 85.91 1222.6 85.91 1222.6 163.7 1205.91 163.7 1205.91 190.36 1239.78 190.36 1266.23 164.2 1266.23 85.52 1239.78 59.36"/>
    <polygon class="st1" points="1138.88 85.52 1138.88 164.2 1165.44 190.36 1199.01 190.36 1199.01 163.7 1182.62 163.7 1182.62 85.91 1199.01 85.91 1199.01 59.36 1165.44 59.36 1138.88 85.52"/>
  </g>
  <g>
    <path class="st0" d="M662.81,117.75c-.81,0-2.04,1.09-2.04,3.26,0,2.44.68,5.97,2.17,7.74,1.36-3.12,1.9-6.38,1.9-8.15,0-2.04-1.09-2.85-2.04-2.85Z"/>
    <path class="st0" d="M652.49,122.91c-2.85,2.71-5.43,6.11-7.74,10.18-3.53,6.52-5.7,14.12-5.7,19.15,0,4.07,1.22,5.7,3.26,5.7,3.53,0,8.96-5.02,13.99-14.26,2.04-3.53,3.67-6.93,4.48-9.78-4.34-2.72-7.2-6.25-8.28-11Z"/>
    <path class="st0" d="M572.07,59.29v131h131V59.29h-131ZM675.84,134.05c-.95,1.09-2.04,1.63-3.53,1.9-2.85,11.27-11.54,24.58-21.86,28.1-1.22.41-2.85.82-4.89.82-4.48,0-9.5-1.9-13.31-6.93-.71-.93-1.29-1.93-1.8-2.95-4.1,4.67-10.68,9.88-18.29,9.88-7.2,0-13.44-5.84-13.44-15.21,0-2.99.81-6.79,2.72-11.27,2.72-6.65,7.87-17.38,13.31-27.16-4.21-.54-6.65-2.04-7.74-3.67-1.9-2.85-.54-4.21,2.58-4.07,3.12.14,6.79,0,9.78-.27,4.21-7.33,7.06-11.81,10.18-16.29,2.04-2.99,3.67-2.85,5.16-.27.95,1.63,1.49,3.94,1.49,5.57,0,2.45-.54,5.57-2.17,9.37,4.21.54,6.52,2.72,7.47,4.34,1.36,2.45.41,4.07-2.85,3.67-2.44-.27-5.97,0-8.96.41-5.16,8.83-12.9,22.27-17.65,32.59-1.63,3.66-2.44,7.2-2.44,10.18,0,4.07,1.36,6.93,3.66,6.93,4.65,0,10.66-6.59,15.27-15.09.33-5.57,2.4-11.64,5.64-17.49,6.11-10.86,14.66-17.65,23.62-17.65,3.94,0,6.38,1.49,8.96,5.02,3.8,4.48,7.6,5.43,6.38,16.97,3.53,0,3.8,1.22,2.72,2.58Z"/>
  </g>
</svg>